<mxfile host="app.diagrams.net" modified="2023-04-01T21:10:55.306Z" agent="Mozilla/5.0 (Windows NT 10.0; Win64; x64; rv:109.0) Gecko/20100101 Firefox/111.0" etag="SEackklar_XsJFoF3BGj" version="21.1.2" type="device">
  <diagram name="Страница 1" id="4HQDP-AyuuWZWp3D9xRN">
    <mxGraphModel dx="1434" dy="774" grid="1" gridSize="10" guides="1" tooltips="1" connect="1" arrows="1" fold="1" page="1" pageScale="1" pageWidth="827" pageHeight="1169" math="0" shadow="0">
      <root>
        <mxCell id="0" />
        <mxCell id="1" parent="0" />
        <mxCell id="UWCa4yKHjkD6jmXfwy8M-2" value="Data Base" style="whiteSpace=wrap;html=1;align=center;" vertex="1" parent="1">
          <mxGeometry x="170" y="370" width="100" height="40" as="geometry" />
        </mxCell>
        <mxCell id="UWCa4yKHjkD6jmXfwy8M-8" style="edgeStyle=orthogonalEdgeStyle;rounded=0;orthogonalLoop=1;jettySize=auto;html=1;exitX=1;exitY=0.5;exitDx=0;exitDy=0;entryX=0;entryY=0.5;entryDx=0;entryDy=0;startArrow=classic;startFill=1;" edge="1" parent="1" source="UWCa4yKHjkD6jmXfwy8M-3" target="UWCa4yKHjkD6jmXfwy8M-4">
          <mxGeometry relative="1" as="geometry" />
        </mxCell>
        <mxCell id="UWCa4yKHjkD6jmXfwy8M-3" value="Data Access " style="whiteSpace=wrap;html=1;align=center;" vertex="1" parent="1">
          <mxGeometry x="300" y="370" width="100" height="40" as="geometry" />
        </mxCell>
        <mxCell id="UWCa4yKHjkD6jmXfwy8M-9" style="edgeStyle=orthogonalEdgeStyle;rounded=0;orthogonalLoop=1;jettySize=auto;html=1;exitX=1;exitY=0.5;exitDx=0;exitDy=0;entryX=0;entryY=0.5;entryDx=0;entryDy=0;startArrow=classic;startFill=1;" edge="1" parent="1" source="UWCa4yKHjkD6jmXfwy8M-4" target="UWCa4yKHjkD6jmXfwy8M-5">
          <mxGeometry relative="1" as="geometry" />
        </mxCell>
        <mxCell id="UWCa4yKHjkD6jmXfwy8M-4" value="Business Logic" style="whiteSpace=wrap;html=1;align=center;" vertex="1" parent="1">
          <mxGeometry x="430" y="370" width="100" height="40" as="geometry" />
        </mxCell>
        <mxCell id="UWCa4yKHjkD6jmXfwy8M-5" value="Web Server" style="whiteSpace=wrap;html=1;align=center;" vertex="1" parent="1">
          <mxGeometry x="560" y="370" width="100" height="40" as="geometry" />
        </mxCell>
        <mxCell id="UWCa4yKHjkD6jmXfwy8M-7" value="" style="endArrow=classic;startArrow=classic;html=1;rounded=0;exitX=1;exitY=0.5;exitDx=0;exitDy=0;entryX=0;entryY=0.5;entryDx=0;entryDy=0;" edge="1" parent="1" source="UWCa4yKHjkD6jmXfwy8M-2" target="UWCa4yKHjkD6jmXfwy8M-3">
          <mxGeometry width="50" height="50" relative="1" as="geometry">
            <mxPoint x="390" y="430" as="sourcePoint" />
            <mxPoint x="440" y="380" as="targetPoint" />
          </mxGeometry>
        </mxCell>
      </root>
    </mxGraphModel>
  </diagram>
</mxfile>
